<svg id="visual" viewBox="0 0 1920 1080" width="1920" height="1080" xmlns="http://www.w3.org/2000/svg" xmlns:xlink="http://www.w3.org/1999/xlink" version="1.1"><rect x="0" y="0" width="1920" height="1080" fill="#190452"></rect><path d="M0 334L13.8 317.7C27.7 301.3 55.3 268.7 83.2 216.5C111 164.3 139 92.7 166.8 105.5C194.7 118.3 222.3 215.7 250.2 255.5C278 295.3 306 277.7 333.8 236.5C361.7 195.3 389.3 130.7 417.2 90.2C445 49.7 473 33.3 500.8 88.5C528.7 143.7 556.3 270.3 584.2 282.2C612 294 640 191 667.8 183.3C695.7 175.7 723.3 263.3 751.2 284C779 304.7 807 258.3 834.8 271.5C862.7 284.7 890.3 357.3 918.2 373.8C946 390.3 974 350.7 1001.8 336C1029.7 321.3 1057.3 331.7 1085.2 334.3C1113 337 1141 332 1168.8 339C1196.7 346 1224.3 365 1252.2 345C1280 325 1308 266 1335.8 240.5C1363.7 215 1391.3 223 1419.2 253.3C1447 283.7 1475 336.3 1502.8 350.2C1530.7 364 1558.3 339 1586.2 328.7C1614 318.3 1642 322.7 1669.8 271.5C1697.7 220.3 1725.3 113.7 1753.2 129.8C1781 146 1809 285 1836.8 311.5C1864.7 338 1892.3 252 1906.2 209L1920 166L1920 1081L1906.2 1081C1892.3 1081 1864.7 1081 1836.8 1081C1809 1081 1781 1081 1753.2 1081C1725.3 1081 1697.7 1081 1669.8 1081C1642 1081 1614 1081 1586.2 1081C1558.3 1081 1530.7 1081 1502.8 1081C1475 1081 1447 1081 1419.2 1081C1391.3 1081 1363.7 1081 1335.8 1081C1308 1081 1280 1081 1252.2 1081C1224.3 1081 1196.7 1081 1168.8 1081C1141 1081 1113 1081 1085.2 1081C1057.3 1081 1029.7 1081 1001.8 1081C974 1081 946 1081 918.2 1081C890.3 1081 862.7 1081 834.8 1081C807 1081 779 1081 751.2 1081C723.3 1081 695.7 1081 667.8 1081C640 1081 612 1081 584.2 1081C556.3 1081 528.7 1081 500.8 1081C473 1081 445 1081 417.2 1081C389.3 1081 361.7 1081 333.8 1081C306 1081 278 1081 250.2 1081C222.3 1081 194.7 1081 166.8 1081C139 1081 111 1081 83.2 1081C55.3 1081 27.7 1081 13.8 1081L0 1081Z" fill="#ff6464"></path><path d="M0 472L13.8 453C27.7 434 55.3 396 83.2 387.5C111 379 139 400 166.8 406.7C194.7 413.3 222.3 405.7 250.2 374.7C278 343.7 306 289.3 333.8 255.2C361.7 221 389.3 207 417.2 221C445 235 473 277 500.8 324.8C528.7 372.7 556.3 426.3 584.2 436.8C612 447.3 640 414.7 667.8 385C695.7 355.3 723.3 328.7 751.2 295.7C779 262.7 807 223.3 834.8 235.5C862.7 247.7 890.3 311.3 918.2 341.2C946 371 974 367 1001.8 364C1029.7 361 1057.3 359 1085.2 347.3C1113 335.7 1141 314.3 1168.8 283C1196.7 251.7 1224.3 210.3 1252.2 221.7C1280 233 1308 297 1335.8 312.8C1363.7 328.7 1391.3 296.3 1419.2 259.5C1447 222.7 1475 181.3 1502.8 170.7C1530.7 160 1558.3 180 1586.2 170.8C1614 161.7 1642 123.3 1669.8 142.8C1697.7 162.3 1725.3 239.7 1753.2 303.5C1781 367.3 1809 417.7 1836.8 423.3C1864.7 429 1892.3 390 1906.2 370.5L1920 351L1920 1081L1906.2 1081C1892.3 1081 1864.7 1081 1836.8 1081C1809 1081 1781 1081 1753.2 1081C1725.3 1081 1697.7 1081 1669.8 1081C1642 1081 1614 1081 1586.2 1081C1558.3 1081 1530.7 1081 1502.8 1081C1475 1081 1447 1081 1419.2 1081C1391.3 1081 1363.7 1081 1335.8 1081C1308 1081 1280 1081 1252.2 1081C1224.3 1081 1196.7 1081 1168.8 1081C1141 1081 1113 1081 1085.2 1081C1057.3 1081 1029.7 1081 1001.8 1081C974 1081 946 1081 918.2 1081C890.3 1081 862.7 1081 834.8 1081C807 1081 779 1081 751.2 1081C723.3 1081 695.7 1081 667.8 1081C640 1081 612 1081 584.2 1081C556.3 1081 528.7 1081 500.8 1081C473 1081 445 1081 417.2 1081C389.3 1081 361.7 1081 333.8 1081C306 1081 278 1081 250.2 1081C222.3 1081 194.7 1081 166.8 1081C139 1081 111 1081 83.2 1081C55.3 1081 27.7 1081 13.8 1081L0 1081Z" fill="#f15467"></path><path d="M0 288L13.8 329C27.7 370 55.3 452 83.2 456.3C111 460.7 139 387.3 166.8 357.3C194.7 327.3 222.3 340.7 250.2 364.7C278 388.7 306 423.3 333.8 396.5C361.7 369.7 389.3 281.3 417.2 284.3C445 287.3 473 381.7 500.8 410.8C528.7 440 556.3 404 584.2 356.3C612 308.7 640 249.3 667.8 263.5C695.7 277.7 723.3 365.3 751.2 365C779 364.7 807 276.3 834.8 245.8C862.7 215.3 890.3 242.7 918.2 258.7C946 274.7 974 279.3 1001.8 296.5C1029.7 313.7 1057.3 343.3 1085.2 368C1113 392.7 1141 412.3 1168.8 412.7C1196.7 413 1224.3 394 1252.2 395.8C1280 397.7 1308 420.3 1335.8 390C1363.7 359.7 1391.3 276.3 1419.2 241.5C1447 206.7 1475 220.3 1502.8 273.3C1530.7 326.3 1558.3 418.7 1586.2 428.2C1614 437.7 1642 364.3 1669.8 321.2C1697.7 278 1725.3 265 1753.2 265C1781 265 1809 278 1836.8 306.8C1864.7 335.7 1892.3 380.3 1906.2 402.7L1920 425L1920 1081L1906.2 1081C1892.3 1081 1864.7 1081 1836.8 1081C1809 1081 1781 1081 1753.2 1081C1725.3 1081 1697.7 1081 1669.8 1081C1642 1081 1614 1081 1586.2 1081C1558.3 1081 1530.7 1081 1502.8 1081C1475 1081 1447 1081 1419.2 1081C1391.3 1081 1363.7 1081 1335.8 1081C1308 1081 1280 1081 1252.2 1081C1224.3 1081 1196.7 1081 1168.8 1081C1141 1081 1113 1081 1085.2 1081C1057.3 1081 1029.7 1081 1001.8 1081C974 1081 946 1081 918.2 1081C890.3 1081 862.7 1081 834.8 1081C807 1081 779 1081 751.2 1081C723.3 1081 695.7 1081 667.8 1081C640 1081 612 1081 584.2 1081C556.3 1081 528.7 1081 500.8 1081C473 1081 445 1081 417.2 1081C389.3 1081 361.7 1081 333.8 1081C306 1081 278 1081 250.2 1081C222.3 1081 194.7 1081 166.8 1081C139 1081 111 1081 83.2 1081C55.3 1081 27.7 1081 13.8 1081L0 1081Z" fill="#e2456a"></path><path d="M0 305L13.8 318.5C27.7 332 55.3 359 83.2 376.5C111 394 139 402 166.8 396.2C194.7 390.3 222.3 370.7 250.2 378.3C278 386 306 421 333.8 462.5C361.7 504 389.3 552 417.2 564.3C445 576.7 473 553.3 500.8 531.2C528.7 509 556.3 488 584.2 452.5C612 417 640 367 667.8 343.3C695.7 319.7 723.3 322.3 751.2 314.5C779 306.7 807 288.3 834.8 309.2C862.7 330 890.3 390 918.2 439.5C946 489 974 528 1001.8 543.2C1029.7 558.3 1057.3 549.7 1085.2 538.2C1113 526.7 1141 512.3 1168.8 515.2C1196.7 518 1224.3 538 1252.2 536.2C1280 534.3 1308 510.7 1335.8 485.3C1363.7 460 1391.3 433 1419.2 450.5C1447 468 1475 530 1502.8 510C1530.7 490 1558.3 388 1586.2 332.2C1614 276.3 1642 266.7 1669.8 280.7C1697.7 294.7 1725.3 332.3 1753.2 333.8C1781 335.3 1809 300.7 1836.8 311.3C1864.7 322 1892.3 378 1906.2 406L1920 434L1920 1081L1906.2 1081C1892.3 1081 1864.7 1081 1836.8 1081C1809 1081 1781 1081 1753.2 1081C1725.3 1081 1697.7 1081 1669.8 1081C1642 1081 1614 1081 1586.2 1081C1558.3 1081 1530.7 1081 1502.8 1081C1475 1081 1447 1081 1419.2 1081C1391.3 1081 1363.7 1081 1335.8 1081C1308 1081 1280 1081 1252.2 1081C1224.3 1081 1196.7 1081 1168.8 1081C1141 1081 1113 1081 1085.2 1081C1057.3 1081 1029.7 1081 1001.8 1081C974 1081 946 1081 918.2 1081C890.3 1081 862.7 1081 834.8 1081C807 1081 779 1081 751.2 1081C723.3 1081 695.7 1081 667.8 1081C640 1081 612 1081 584.2 1081C556.3 1081 528.7 1081 500.8 1081C473 1081 445 1081 417.2 1081C389.3 1081 361.7 1081 333.8 1081C306 1081 278 1081 250.2 1081C222.3 1081 194.7 1081 166.8 1081C139 1081 111 1081 83.2 1081C55.3 1081 27.7 1081 13.8 1081L0 1081Z" fill="#d2386c"></path><path d="M0 664L13.8 664C27.7 664 55.3 664 83.2 625C111 586 139 508 166.8 456.7C194.7 405.3 222.3 380.7 250.2 375.5C278 370.3 306 384.7 333.8 411.2C361.7 437.7 389.3 476.3 417.2 475.2C445 474 473 433 500.8 459C528.7 485 556.3 578 584.2 582.7C612 587.3 640 503.7 667.8 499.3C695.7 495 723.3 570 751.2 569.8C779 569.7 807 494.3 834.8 464.3C862.7 434.3 890.3 449.7 918.2 452.5C946 455.3 974 445.7 1001.8 430.7C1029.7 415.7 1057.3 395.3 1085.2 399.8C1113 404.3 1141 433.7 1168.8 461.7C1196.7 489.7 1224.3 516.3 1252.2 505.3C1280 494.3 1308 445.7 1335.8 438.2C1363.7 430.7 1391.3 464.3 1419.2 496.8C1447 529.3 1475 560.7 1502.8 570.3C1530.7 580 1558.3 568 1586.2 534.8C1614 501.7 1642 447.3 1669.8 451.7C1697.7 456 1725.3 519 1753.2 512.7C1781 506.3 1809 430.7 1836.8 416C1864.7 401.3 1892.3 447.7 1906.2 470.8L1920 494L1920 1081L1906.2 1081C1892.3 1081 1864.7 1081 1836.8 1081C1809 1081 1781 1081 1753.2 1081C1725.3 1081 1697.7 1081 1669.8 1081C1642 1081 1614 1081 1586.2 1081C1558.3 1081 1530.7 1081 1502.8 1081C1475 1081 1447 1081 1419.2 1081C1391.3 1081 1363.7 1081 1335.8 1081C1308 1081 1280 1081 1252.2 1081C1224.3 1081 1196.7 1081 1168.8 1081C1141 1081 1113 1081 1085.2 1081C1057.3 1081 1029.7 1081 1001.8 1081C974 1081 946 1081 918.2 1081C890.3 1081 862.7 1081 834.8 1081C807 1081 779 1081 751.2 1081C723.3 1081 695.7 1081 667.8 1081C640 1081 612 1081 584.2 1081C556.3 1081 528.7 1081 500.8 1081C473 1081 445 1081 417.2 1081C389.3 1081 361.7 1081 333.8 1081C306 1081 278 1081 250.2 1081C222.3 1081 194.7 1081 166.8 1081C139 1081 111 1081 83.2 1081C55.3 1081 27.7 1081 13.8 1081L0 1081Z" fill="#c02b6d"></path><path d="M0 719L13.8 691.5C27.7 664 55.3 609 83.2 567C111 525 139 496 166.8 497C194.7 498 222.3 529 250.2 572.5C278 616 306 672 333.8 685.8C361.7 699.7 389.3 671.3 417.2 628.5C445 585.7 473 528.3 500.8 512.2C528.7 496 556.3 521 584.2 562.8C612 604.7 640 663.3 667.8 679.7C695.7 696 723.3 670 751.2 624.5C779 579 807 514 834.8 510.7C862.7 507.3 890.3 565.7 918.2 584.2C946 602.7 974 581.3 1001.8 580.7C1029.7 580 1057.3 600 1085.2 602C1113 604 1141 588 1168.8 579C1196.7 570 1224.3 568 1252.2 548.5C1280 529 1308 492 1335.8 506.8C1363.7 521.7 1391.3 588.3 1419.2 609.8C1447 631.3 1475 607.7 1502.8 601.3C1530.7 595 1558.3 606 1586.2 579C1614 552 1642 487 1669.8 454.2C1697.7 421.3 1725.3 420.7 1753.2 466.2C1781 511.7 1809 603.3 1836.8 628.3C1864.7 653.3 1892.3 611.7 1906.2 590.8L1920 570L1920 1081L1906.2 1081C1892.3 1081 1864.7 1081 1836.8 1081C1809 1081 1781 1081 1753.2 1081C1725.3 1081 1697.7 1081 1669.8 1081C1642 1081 1614 1081 1586.2 1081C1558.3 1081 1530.7 1081 1502.8 1081C1475 1081 1447 1081 1419.2 1081C1391.3 1081 1363.7 1081 1335.8 1081C1308 1081 1280 1081 1252.2 1081C1224.3 1081 1196.7 1081 1168.8 1081C1141 1081 1113 1081 1085.2 1081C1057.3 1081 1029.7 1081 1001.8 1081C974 1081 946 1081 918.2 1081C890.3 1081 862.7 1081 834.8 1081C807 1081 779 1081 751.2 1081C723.3 1081 695.7 1081 667.8 1081C640 1081 612 1081 584.2 1081C556.3 1081 528.7 1081 500.8 1081C473 1081 445 1081 417.2 1081C389.3 1081 361.7 1081 333.8 1081C306 1081 278 1081 250.2 1081C222.3 1081 194.7 1081 166.8 1081C139 1081 111 1081 83.2 1081C55.3 1081 27.7 1081 13.8 1081L0 1081Z" fill="#ad216e"></path><path d="M0 762L13.8 732.2C27.7 702.3 55.3 642.7 83.2 621.5C111 600.3 139 617.7 166.8 610.3C194.7 603 222.3 571 250.2 571.7C278 572.3 306 605.7 333.8 643.8C361.7 682 389.3 725 417.2 702.2C445 679.3 473 590.7 500.8 561.2C528.7 531.7 556.3 561.3 584.2 601.8C612 642.3 640 693.7 667.8 716.7C695.7 739.7 723.3 734.3 751.2 711.8C779 689.3 807 649.7 834.8 611.7C862.7 573.7 890.3 537.3 918.2 539.3C946 541.3 974 581.7 1001.8 590.2C1029.7 598.7 1057.3 575.3 1085.2 567.7C1113 560 1141 568 1168.8 577.3C1196.7 586.7 1224.3 597.3 1252.2 588.7C1280 580 1308 552 1335.8 544.3C1363.7 536.7 1391.3 549.3 1419.2 550.2C1447 551 1475 540 1502.8 551C1530.7 562 1558.3 595 1586.2 594.8C1614 594.7 1642 561.3 1669.8 571.8C1697.7 582.3 1725.3 636.7 1753.2 661C1781 685.3 1809 679.7 1836.8 677.2C1864.7 674.7 1892.3 675.3 1906.2 675.7L1920 676L1920 1081L1906.2 1081C1892.3 1081 1864.7 1081 1836.8 1081C1809 1081 1781 1081 1753.2 1081C1725.3 1081 1697.7 1081 1669.8 1081C1642 1081 1614 1081 1586.2 1081C1558.3 1081 1530.7 1081 1502.8 1081C1475 1081 1447 1081 1419.2 1081C1391.3 1081 1363.7 1081 1335.8 1081C1308 1081 1280 1081 1252.2 1081C1224.3 1081 1196.7 1081 1168.8 1081C1141 1081 1113 1081 1085.2 1081C1057.3 1081 1029.7 1081 1001.8 1081C974 1081 946 1081 918.2 1081C890.3 1081 862.7 1081 834.8 1081C807 1081 779 1081 751.2 1081C723.3 1081 695.7 1081 667.8 1081C640 1081 612 1081 584.2 1081C556.3 1081 528.7 1081 500.8 1081C473 1081 445 1081 417.2 1081C389.3 1081 361.7 1081 333.8 1081C306 1081 278 1081 250.2 1081C222.3 1081 194.7 1081 166.8 1081C139 1081 111 1081 83.2 1081C55.3 1081 27.7 1081 13.8 1081L0 1081Z" fill="#99186e"></path><path d="M0 666L13.8 676.2C27.7 686.3 55.3 706.7 83.2 735.2C111 763.7 139 800.3 166.8 802.8C194.7 805.3 222.3 773.7 250.2 733.8C278 694 306 646 333.8 657.2C361.7 668.3 389.3 738.7 417.2 760.3C445 782 473 755 500.8 748.8C528.7 742.7 556.3 757.3 584.2 776.5C612 795.7 640 819.3 667.8 802.5C695.7 785.7 723.3 728.3 751.2 696.2C779 664 807 657 834.8 663.8C862.7 670.7 890.3 691.3 918.2 713.5C946 735.7 974 759.3 1001.8 741C1029.7 722.7 1057.3 662.3 1085.2 640.3C1113 618.3 1141 634.7 1168.8 653.5C1196.7 672.3 1224.3 693.7 1252.2 701.3C1280 709 1308 703 1335.8 721.2C1363.7 739.3 1391.3 781.7 1419.2 784.2C1447 786.7 1475 749.3 1502.8 726.5C1530.7 703.7 1558.3 695.3 1586.2 704.2C1614 713 1642 739 1669.8 733.2C1697.7 727.3 1725.3 689.7 1753.2 690.7C1781 691.7 1809 731.3 1836.8 763.7C1864.7 796 1892.3 821 1906.2 833.5L1920 846L1920 1081L1906.2 1081C1892.3 1081 1864.7 1081 1836.8 1081C1809 1081 1781 1081 1753.2 1081C1725.3 1081 1697.7 1081 1669.8 1081C1642 1081 1614 1081 1586.2 1081C1558.3 1081 1530.7 1081 1502.8 1081C1475 1081 1447 1081 1419.2 1081C1391.3 1081 1363.7 1081 1335.8 1081C1308 1081 1280 1081 1252.2 1081C1224.3 1081 1196.7 1081 1168.8 1081C1141 1081 1113 1081 1085.2 1081C1057.3 1081 1029.7 1081 1001.8 1081C974 1081 946 1081 918.2 1081C890.3 1081 862.7 1081 834.8 1081C807 1081 779 1081 751.2 1081C723.3 1081 695.7 1081 667.8 1081C640 1081 612 1081 584.2 1081C556.3 1081 528.7 1081 500.8 1081C473 1081 445 1081 417.2 1081C389.3 1081 361.7 1081 333.8 1081C306 1081 278 1081 250.2 1081C222.3 1081 194.7 1081 166.8 1081C139 1081 111 1081 83.2 1081C55.3 1081 27.7 1081 13.8 1081L0 1081Z" fill="#84126d"></path><path d="M0 754L13.8 771.5C27.7 789 55.3 824 83.2 835.2C111 846.3 139 833.7 166.8 813C194.7 792.3 222.3 763.7 250.2 743.5C278 723.3 306 711.7 333.8 732.7C361.7 753.7 389.3 807.3 417.2 805.8C445 804.3 473 747.7 500.8 715.5C528.7 683.3 556.3 675.7 584.2 690.8C612 706 640 744 667.8 756.8C695.7 769.7 723.3 757.3 751.2 741C779 724.7 807 704.3 834.8 716C862.7 727.7 890.3 771.3 918.2 793.5C946 815.7 974 816.3 1001.8 792.3C1029.7 768.3 1057.3 719.7 1085.2 707.8C1113 696 1141 721 1168.8 743.3C1196.7 765.7 1224.3 785.3 1252.2 783.7C1280 782 1308 759 1335.8 748.3C1363.7 737.7 1391.3 739.3 1419.2 744.3C1447 749.3 1475 757.7 1502.8 756.7C1530.7 755.7 1558.3 745.3 1586.2 763.2C1614 781 1642 827 1669.8 832.3C1697.7 837.7 1725.3 802.3 1753.2 768.5C1781 734.7 1809 702.3 1836.8 699C1864.7 695.7 1892.3 721.3 1906.2 734.2L1920 747L1920 1081L1906.2 1081C1892.3 1081 1864.7 1081 1836.8 1081C1809 1081 1781 1081 1753.2 1081C1725.3 1081 1697.7 1081 1669.8 1081C1642 1081 1614 1081 1586.2 1081C1558.3 1081 1530.7 1081 1502.8 1081C1475 1081 1447 1081 1419.2 1081C1391.3 1081 1363.7 1081 1335.8 1081C1308 1081 1280 1081 1252.2 1081C1224.3 1081 1196.7 1081 1168.8 1081C1141 1081 1113 1081 1085.2 1081C1057.3 1081 1029.7 1081 1001.8 1081C974 1081 946 1081 918.2 1081C890.3 1081 862.7 1081 834.8 1081C807 1081 779 1081 751.2 1081C723.3 1081 695.7 1081 667.8 1081C640 1081 612 1081 584.2 1081C556.3 1081 528.7 1081 500.8 1081C473 1081 445 1081 417.2 1081C389.3 1081 361.7 1081 333.8 1081C306 1081 278 1081 250.2 1081C222.3 1081 194.7 1081 166.8 1081C139 1081 111 1081 83.2 1081C55.3 1081 27.7 1081 13.8 1081L0 1081Z" fill="#6e0f6a"></path><path d="M0 847L13.8 859.5C27.7 872 55.3 897 83.2 895.3C111 893.7 139 865.3 166.8 868.2C194.7 871 222.3 905 250.2 895.8C278 886.7 306 834.3 333.8 826C361.7 817.7 389.3 853.3 417.2 883C445 912.7 473 936.3 500.8 916.2C528.7 896 556.3 832 584.2 831.2C612 830.3 640 892.7 667.8 917.2C695.7 941.7 723.3 928.3 751.2 911.8C779 895.3 807 875.7 834.8 874.8C862.7 874 890.3 892 918.2 886.5C946 881 974 852 1001.8 857.2C1029.7 862.3 1057.3 901.7 1085.2 891.8C1113 882 1141 823 1168.8 803C1196.7 783 1224.3 802 1252.2 834.5C1280 867 1308 913 1335.8 934.5C1363.7 956 1391.3 953 1419.2 948.3C1447 943.7 1475 937.3 1502.8 911.3C1530.7 885.3 1558.3 839.7 1586.2 822.8C1614 806 1642 818 1669.8 819.8C1697.7 821.7 1725.3 813.3 1753.2 803.8C1781 794.3 1809 783.7 1836.8 807.8C1864.7 832 1892.3 891 1906.2 920.5L1920 950L1920 1081L1906.2 1081C1892.3 1081 1864.7 1081 1836.8 1081C1809 1081 1781 1081 1753.2 1081C1725.3 1081 1697.7 1081 1669.8 1081C1642 1081 1614 1081 1586.2 1081C1558.3 1081 1530.7 1081 1502.8 1081C1475 1081 1447 1081 1419.2 1081C1391.3 1081 1363.7 1081 1335.8 1081C1308 1081 1280 1081 1252.2 1081C1224.3 1081 1196.7 1081 1168.8 1081C1141 1081 1113 1081 1085.2 1081C1057.3 1081 1029.7 1081 1001.8 1081C974 1081 946 1081 918.2 1081C890.3 1081 862.7 1081 834.8 1081C807 1081 779 1081 751.2 1081C723.3 1081 695.7 1081 667.8 1081C640 1081 612 1081 584.2 1081C556.3 1081 528.7 1081 500.8 1081C473 1081 445 1081 417.2 1081C389.3 1081 361.7 1081 333.8 1081C306 1081 278 1081 250.2 1081C222.3 1081 194.7 1081 166.8 1081C139 1081 111 1081 83.2 1081C55.3 1081 27.7 1081 13.8 1081L0 1081Z" fill="#570d67"></path><path d="M0 855L13.8 856.8C27.7 858.7 55.3 862.3 83.2 889.5C111 916.7 139 967.3 166.8 983.5C194.7 999.7 222.3 981.3 250.2 964C278 946.7 306 930.3 333.8 925.8C361.7 921.3 389.3 928.7 417.2 938.2C445 947.7 473 959.3 500.8 960C528.7 960.7 556.3 950.3 584.2 929.8C612 909.3 640 878.7 667.8 887C695.7 895.3 723.3 942.7 751.2 958.8C779 975 807 960 834.8 955.3C862.7 950.7 890.3 956.3 918.2 937.5C946 918.7 974 875.3 1001.8 861.8C1029.7 848.3 1057.3 864.7 1085.2 868.8C1113 873 1141 865 1168.8 870.8C1196.7 876.7 1224.3 896.3 1252.2 917C1280 937.7 1308 959.3 1335.8 951C1363.7 942.7 1391.3 904.3 1419.2 890.7C1447 877 1475 888 1502.8 908.7C1530.7 929.3 1558.3 959.7 1586.2 953C1614 946.3 1642 902.7 1669.8 902.3C1697.7 902 1725.3 945 1753.2 964.2C1781 983.3 1809 978.7 1836.8 961.2C1864.7 943.7 1892.3 913.3 1906.2 898.2L1920 883L1920 1081L1906.2 1081C1892.3 1081 1864.7 1081 1836.8 1081C1809 1081 1781 1081 1753.2 1081C1725.3 1081 1697.7 1081 1669.8 1081C1642 1081 1614 1081 1586.2 1081C1558.3 1081 1530.7 1081 1502.8 1081C1475 1081 1447 1081 1419.2 1081C1391.3 1081 1363.7 1081 1335.8 1081C1308 1081 1280 1081 1252.2 1081C1224.3 1081 1196.7 1081 1168.8 1081C1141 1081 1113 1081 1085.2 1081C1057.3 1081 1029.7 1081 1001.8 1081C974 1081 946 1081 918.2 1081C890.3 1081 862.7 1081 834.8 1081C807 1081 779 1081 751.2 1081C723.3 1081 695.7 1081 667.8 1081C640 1081 612 1081 584.2 1081C556.3 1081 528.7 1081 500.8 1081C473 1081 445 1081 417.2 1081C389.3 1081 361.7 1081 333.8 1081C306 1081 278 1081 250.2 1081C222.3 1081 194.7 1081 166.8 1081C139 1081 111 1081 83.2 1081C55.3 1081 27.7 1081 13.8 1081L0 1081Z" fill="#3f0d62"></path><path d="M0 941L13.8 947C27.7 953 55.3 965 83.2 984.2C111 1003.3 139 1029.7 166.8 1023.3C194.7 1017 222.3 978 250.2 978.5C278 979 306 1019 333.8 1029.7C361.7 1040.3 389.3 1021.7 417.2 998.5C445 975.3 473 947.7 500.8 944.7C528.7 941.7 556.3 963.3 584.2 971.2C612 979 640 973 667.8 984.3C695.7 995.7 723.3 1024.3 751.2 1025.8C779 1027.3 807 1001.7 834.8 997.3C862.7 993 890.3 1010 918.2 1019C946 1028 974 1029 1001.8 1012.3C1029.7 995.7 1057.3 961.3 1085.2 953.5C1113 945.7 1141 964.3 1168.8 966.2C1196.7 968 1224.3 953 1252.2 959.3C1280 965.7 1308 993.3 1335.8 995.2C1363.7 997 1391.3 973 1419.2 982.7C1447 992.3 1475 1035.7 1502.8 1044.2C1530.7 1052.7 1558.3 1026.3 1586.2 1016.7C1614 1007 1642 1014 1669.8 1009.3C1697.7 1004.7 1725.3 988.3 1753.2 989.7C1781 991 1809 1010 1836.8 1000.3C1864.7 990.7 1892.3 952.3 1906.2 933.2L1920 914L1920 1081L1906.2 1081C1892.3 1081 1864.7 1081 1836.8 1081C1809 1081 1781 1081 1753.2 1081C1725.3 1081 1697.7 1081 1669.8 1081C1642 1081 1614 1081 1586.2 1081C1558.3 1081 1530.7 1081 1502.8 1081C1475 1081 1447 1081 1419.2 1081C1391.3 1081 1363.7 1081 1335.8 1081C1308 1081 1280 1081 1252.2 1081C1224.3 1081 1196.7 1081 1168.8 1081C1141 1081 1113 1081 1085.2 1081C1057.3 1081 1029.7 1081 1001.8 1081C974 1081 946 1081 918.2 1081C890.3 1081 862.7 1081 834.8 1081C807 1081 779 1081 751.2 1081C723.3 1081 695.7 1081 667.8 1081C640 1081 612 1081 584.2 1081C556.3 1081 528.7 1081 500.8 1081C473 1081 445 1081 417.2 1081C389.3 1081 361.7 1081 333.8 1081C306 1081 278 1081 250.2 1081C222.3 1081 194.7 1081 166.8 1081C139 1081 111 1081 83.2 1081C55.3 1081 27.7 1081 13.8 1081L0 1081Z" fill="#220d5c"></path></svg>